<svg width="24" height="24" viewBox="0 0 24 24" fill="none" xmlns="http://www.w3.org/2000/svg">
<path d="M10.2 3.60001C11.4287 3.59993 12.633 3.94283 13.6773 4.5901C14.7217 5.23737 15.5646 6.16331 16.1112 7.26368C16.6579 8.36406 16.8865 9.59517 16.7714 10.8184C16.6562 12.0417 16.2019 13.2085 15.4596 14.1876L20.436 19.164C20.5955 19.3248 20.6886 19.5399 20.6966 19.7662C20.7045 19.9926 20.6268 20.2137 20.479 20.3853C20.3312 20.5569 20.124 20.6665 19.899 20.6921C19.6739 20.7178 19.4475 20.6576 19.2648 20.5236L19.164 20.436L14.1876 15.4596C13.3531 16.0922 12.38 16.5172 11.3488 16.6994C10.3176 16.8815 9.2578 16.8157 8.25704 16.5074C7.25628 16.199 6.34326 15.6569 5.59342 14.9259C4.84358 14.1949 4.27844 13.296 3.9447 12.3034C3.61096 11.3108 3.51819 10.2531 3.67407 9.21757C3.82995 8.18205 4.23 7.19847 4.84116 6.34813C5.45232 5.49778 6.25705 4.80506 7.18886 4.32721C8.12066 3.84936 9.15281 3.60009 10.2 3.60001V3.60001ZM10.2 5.40001C8.92696 5.40001 7.70606 5.90572 6.80588 6.80589C5.90571 7.70607 5.4 8.92697 5.4 10.2C5.4 11.473 5.90571 12.6939 6.80588 13.5941C7.70606 14.4943 8.92696 15 10.2 15C11.473 15 12.6939 14.4943 13.5941 13.5941C14.4943 12.6939 15 11.473 15 10.2C15 8.92697 14.4943 7.70607 13.5941 6.80589C12.6939 5.90572 11.473 5.40001 10.2 5.40001Z" fill="#3FB488"/>
</svg>
