<svg width="18" height="18" viewBox="0 0 18 18" fill="none" xmlns="http://www.w3.org/2000/svg">
<path d="M7.65 2.7C8.5715 2.69994 9.47473 2.95711 10.258 3.44256C11.0413 3.92802 11.6735 4.62247 12.0834 5.44775C12.4934 6.27303 12.6649 7.19637 12.5785 8.11382C12.4922 9.03127 12.1515 9.9064 11.5947 10.6407L15.327 14.373C15.4467 14.4936 15.5164 14.6549 15.5224 14.8247C15.5284 14.9945 15.4701 15.1603 15.3593 15.289C15.2484 15.4177 15.093 15.4999 14.9242 15.5191C14.7554 15.5383 14.5856 15.4932 14.4486 15.3927L14.373 15.327L10.6407 11.5947C10.0148 12.0692 9.28501 12.3879 8.5116 12.5245C7.73818 12.6611 6.94335 12.6118 6.19278 12.3805C5.44221 12.1492 4.75745 11.7427 4.19507 11.1944C3.63269 10.6462 3.20883 9.97201 2.95853 9.22757C2.70822 8.48313 2.63865 7.68981 2.75556 6.91317C2.87247 6.13653 3.1725 5.39885 3.63087 4.76109C4.08924 4.12332 4.69279 3.60379 5.39164 3.2454C6.0905 2.88701 6.86461 2.70006 7.65 2.7V2.7ZM7.65 4.05C6.69522 4.05 5.77955 4.42928 5.10442 5.10441C4.42929 5.77954 4.05 6.69522 4.05 7.65C4.05 8.60478 4.42929 9.52045 5.10442 10.1956C5.77955 10.8707 6.69522 11.25 7.65 11.25C8.60478 11.25 9.52045 10.8707 10.1956 10.1956C10.8707 9.52045 11.25 8.60478 11.25 7.65C11.25 6.69522 10.8707 5.77954 10.1956 5.10441C9.52045 4.42928 8.60478 4.05 7.65 4.05Z" fill="#3FB488"/>
</svg>
